<svg xmlns="http://www.w3.org/2000/svg" width="160" height="32" fill="none" viewBox="0 0 160 32">
  <g clip-path="url(#a)">
    <path fill="#fff" d="m17.75 24.485-7.247 4.317L21.913 32l3.083-11.833-4.163-7.515-3.083 11.833ZM8.357 8.667 8.374 0 0 8.65l8.34 8.684 8.357.021-8.34-8.688Zm22.1-8.02L19.034 3.79l-4.194 7.5 11.424-3.15 7.229 4.353L30.457.647Zm36.389 23.124-1.574 1.633h-4.62l-1.574-1.633V16.32l1.574-1.668h4.62l1.574 1.668v7.451Zm-8.04-12.454-3.557 3.688v10.077l3.557 3.689h8.313l3.556-3.689V15.005l-3.556-3.688h-8.313ZM82.05 23.842l-4.377-12.525h-4.105l6.534 17.454h3.663l6.565-17.454h-3.898l-4.381 12.525Zm20.173-9.19v-3.335h-4.092l-1.073 1.113V7.557h-3.833v17.741l3.39 3.473h5.608v-3.367h-3.557l-1.608-1.633v-9.119h5.165ZM51.31 11.317h-6.465l-3.557 3.692V28.77h3.829V16.32l1.574-1.668h4.62v-3.335Zm58.524 5.031 1.574-1.668h4.616l1.574 1.668v2.056h-7.764v-2.056Zm9.049 6.936-2.072 2.148h-5.403l-1.574-1.633v-2.056h11.597v-6.706l-3.557-3.688h-8.313l-3.556 3.688v10.077l3.556 3.688h9.1l2.773-2.875-2.548-2.643h-.003Zm19.282 0-2.068 2.144h-5.403l-1.574-1.625v-7.451l1.574-1.633h5.403l2.068 2.141 2.157-2.236.395-.4-2.773-2.883h-9.096l-3.561 3.693v10.08l3.561 3.688h9.096l2.773-2.872-.395-.41-2.157-2.236ZM160 15.009l-3.56-3.689h-6.964l-1.073 1.113V3.795h-3.833v24.961h3.37l.017.015h.446V16.32l1.574-1.664h4.616l1.574 1.664v12.45H160v-3.689"/>
  </g>
  <defs>
    <clipPath id="a">
      <path fill="#fff" d="M0 0h160v32H0z"/>
    </clipPath>
  </defs>
</svg>
